<?xml version="1.0" encoding="UTF-8" standalone="no"?>
<!-- Created with Inkscape (http://www.inkscape.org/) -->

<svg
   xmlns:dc="http://purl.org/dc/elements/1.1/"
   xmlns:cc="http://creativecommons.org/ns#"
   xmlns:rdf="http://www.w3.org/1999/02/22-rdf-syntax-ns#"
   xmlns:svg="http://www.w3.org/2000/svg"
   xmlns="http://www.w3.org/2000/svg"
   xmlns:sodipodi="http://sodipodi.sourceforge.net/DTD/sodipodi-0.dtd"
   xmlns:inkscape="http://www.inkscape.org/namespaces/inkscape"
   sodipodi:docname="cogs.svg"
   inkscape:version="0.48.5 r10040"
   version="1.1"
   id="svg2"
   height="256"
   width="256">
  <sodipodi:namedview
     id="base"
     pagecolor="#ffffff"
     bordercolor="#666666"
     borderopacity="1.0"
     inkscape:pageopacity="0.0"
     inkscape:pageshadow="2"
     inkscape:zoom="3.3007812"
     inkscape:cx="128"
     inkscape:cy="128"
     inkscape:document-units="px"
     inkscape:current-layer="svg2"
     showgrid="false"
     inkscape:window-width="1920"
     inkscape:window-height="1033"
     inkscape:window-x="1276"
     inkscape:window-y="151"
     inkscape:window-maximized="1"
     fit-margin-top="0"
     fit-margin-left="0"
     fit-margin-right="0"
     fit-margin-bottom="0"
     inkscape:showpageshadow="false"
     showborder="true"
     borderlayer="false"
     guidetolerance="10000" />
  <defs
     id="defs4" />
  <metadata
     id="metadata7">
    <rdf:RDF>
      <cc:Work
         rdf:about="">
        <dc:format>image/svg+xml</dc:format>
        <dc:type
           rdf:resource="http://purl.org/dc/dcmitype/StillImage" />
      </cc:Work>
    </rdf:RDF>
  </metadata>
  <g
     transform="translate(-177.164,-474.1982)"
     inkscape:label="Layer 1"
     inkscape:groupmode="layer"
     id="layer1" />
  <g
     transform="matrix(0.95923073,0,0,0.9602243,128,128)"
     inkscape:label="Gear50"
     id="g4567"
     style="fill:#808080;stroke:#000000;stroke-width:2.07545042;stroke-miterlimit:4;stroke-opacity:1;stroke-dasharray:none">
    <path
       d="m 122.116,-5.298 5.145,1.299 5.141,2.024 0,3.95 -5.141,2.024 -5.145,1.299 -0.299,4.751 4.942,1.933 4.847,2.653 -0.495,3.918 -5.355,1.365 -5.267,0.643 -0.892,4.677 4.661,2.537 4.476,3.24 -0.983,3.825 -5.483,0.682 -5.306,-0.022 -1.471,4.528 4.306,3.101 4.034,3.776 -1.453,3.671 -5.526,-0.01 -5.261,-0.687 -2.028,4.309 3.883,3.616 3.53,4.251 -1.902,3.461 -5.481,-0.703 -5.134,-1.341 -2.551,4.02 3.399,4.075 2.969,4.66 -2.321,3.194 -5.349,-1.383 -4.926,-1.974 -3.035,3.669 2.862,4.468 2.362,4.995 -2.704,2.879 -5.133,-2.043 -4.64,-2.576 -3.47,3.259 2.279,4.792 1.717,5.252 -3.043,2.517 -4.837,-2.67 -4.28,-3.137 -3.852,2.799 1.661,5.039 1.045,5.426 -3.335,2.116 -4.464,-3.256 -3.853,-3.648 -4.172,2.293 1.016,5.208 0.357,5.514 -3.574,1.682 -4.021,-3.79 -3.365,-4.102 -4.427,1.752 0.355,5.295 -0.337,5.515 -3.755,1.22 -3.515,-4.264 -2.824,-4.492 -4.612,1.184 -0.311,5.298 -1.026,5.429 -3.879,0.74 -2.952,-4.671 -2.239,-4.81 -4.724,0.597 -0.973,5.216 -1.698,5.258 -3.941,0.248 -2.344,-5.004 -1.618,-5.053 -4.762,0 -1.618,5.053 -2.344,5.004 -3.941,-0.248 -1.698,-5.258 -0.973,-5.216 -4.724,-0.597 -2.239,4.81 -2.952,4.671 -3.879,-0.74 -1.026,-5.429 -0.311,-5.298 -4.612,-1.184 -2.824,4.492 -3.515,4.264 -3.755,-1.22 -0.337,-5.515 0.355,-5.295 -4.427,-1.752 -3.365,4.102 -4.021,3.79 -3.574,-1.682 0.357,-5.514 1.016,-5.208 -4.172,-2.293 -3.853,3.648 -4.464,3.256 -3.335,-2.116 1.045,-5.426 1.661,-5.039 -3.852,-2.799 -4.28,3.137 -4.837,2.67 -3.043,-2.517 1.717,-5.252 2.279,-4.792 -3.47,-3.259 -4.64,2.576 -5.133,2.043 -2.704,-2.879 2.362,-4.995 2.862,-4.468 -3.035,-3.669 -4.926,1.974 -5.349,1.383 -2.321,-3.194 2.969,-4.66 3.399,-4.075 -2.551,-4.02 -5.134,1.341 -5.481,0.703 -1.902,-3.461 3.53,-4.251 3.883,-3.616 -2.028,-4.309 -5.261,0.687 -5.526,0.01 -1.453,-3.671 4.034,-3.776 4.306,-3.101 -1.471,-4.528 -5.306,0.022 -5.483,-0.682 -0.983,-3.825 4.476,-3.24 4.661,-2.537 -0.892,-4.677 -5.267,-0.643 -5.355,-1.365 -0.495,-3.918 4.847,-2.653 4.942,-1.933 -0.299,-4.751 -5.145,-1.299 -5.141,-2.024 0,-3.95 5.141,-2.024 5.145,-1.299 0.299,-4.751 -4.942,-1.933 -4.847,-2.653 0.495,-3.918 5.355,-1.365 5.267,-0.643 0.892,-4.677 -4.661,-2.537 -4.476,-3.24 0.983,-3.825 5.483,-0.682 5.306,0.022 1.471,-4.528 -4.306,-3.101 -4.034,-3.776 1.453,-3.671 5.526,0.01 5.261,0.687 2.028,-4.309 -3.883,-3.616 -3.53,-4.251 1.902,-3.461 5.481,0.703 5.134,1.341 2.551,-4.02 -3.399,-4.075 -2.969,-4.66 2.321,-3.194 5.349,1.383 4.926,1.974 3.035,-3.669 -2.862,-4.468 -2.362,-4.995 2.704,-2.879 5.133,2.043 4.64,2.576 3.47,-3.259 -2.279,-4.792 -1.717,-5.252 3.043,-2.517 4.837,2.67 4.28,3.137 3.852,-2.799 -1.661,-5.039 -1.045,-5.426 3.335,-2.116 4.464,3.256 3.853,3.648 4.172,-2.293 -1.016,-5.208 -0.357,-5.514 3.574,-1.682 4.021,3.79 3.365,4.102 4.427,-1.752 -0.355,-5.295 0.337,-5.515 3.755,-1.22 3.515,4.264 2.824,4.492 4.612,-1.184 0.311,-5.298 1.026,-5.429 3.879,-0.74 2.952,4.671 2.239,4.81 4.724,-0.597 0.973,-5.216 1.698,-5.258 3.941,-0.248 2.344,5.004 1.618,5.053 4.762,0 1.618,-5.053 2.344,-5.004 3.941,0.248 1.698,5.258 0.973,5.216 4.724,0.597 2.239,-4.81 2.952,-4.671 3.879,0.74 1.026,5.429 0.311,5.298 4.612,1.184 2.824,-4.492 3.515,-4.264 3.755,1.22 0.337,5.515 -0.355,5.295 4.427,1.752 3.365,-4.102 4.021,-3.79 3.574,1.682 -0.357,5.514 -1.016,5.208 4.172,2.293 3.853,-3.648 4.464,-3.256 3.335,2.116 -1.045,5.426 -1.661,5.039 3.852,2.799 4.28,-3.137 4.837,-2.67 3.043,2.517 -1.717,5.252 -2.279,4.792 3.47,3.259 4.64,-2.576 5.133,-2.043 2.704,2.879 -2.362,4.995 -2.862,4.468 3.035,3.669 4.926,-1.974 5.349,-1.383 2.321,3.194 -2.969,4.66 -3.399,4.075 2.551,4.02 5.134,-1.341 5.481,-0.703 1.902,3.461 -3.53,4.251 -3.883,3.616 2.028,4.309 5.261,-0.687 5.526,-0.01 1.453,3.671 -4.034,3.776 -4.306,3.101 1.471,4.528 5.306,-0.022 5.483,0.682 0.983,3.825 -4.476,3.24 -4.661,2.537 0.892,4.677 5.267,0.643 5.355,1.365 0.495,3.918 -4.847,2.653 -4.942,1.933 z"
       style="fill:#808080;stroke:#000000;stroke-width:2.07545042;stroke-miterlimit:4;stroke-opacity:1;stroke-dasharray:none"
       id="path4569"
       inkscape:connector-curvature="0" />
  </g>
  <g
     id="g4585"
     inkscape:label="Gear10"
     transform="matrix(1.076743,0,0,1.114387,128,128)"
     style="fill:#b3b3b3;stroke:#000000;stroke-width:2.07545042;stroke-miterlimit:4;stroke-opacity:1;stroke-dasharray:none">
    <path
       id="path4587"
       style="fill:#b3b3b3;stroke:#000000;stroke-width:2.07545042;stroke-miterlimit:4;stroke-opacity:1;stroke-dasharray:none"
       d="m 20.071,-3.486 3.505,-0.609 1.575,0.111 5.37,2.488 0,2.992 -5.37,2.488 -1.575,0.111 -3.505,-0.609 -1.784,5.491 3.194,1.568 1.208,1.016 2.882,5.169 -1.758,2.42 -5.807,-1.144 -1.34,-0.835 -2.477,-2.553 -4.671,3.394 1.662,3.145 0.381,1.532 -0.707,5.876 -2.845,0.925 -4.025,-4.339 -0.593,-1.463 -0.504,-3.522 -5.774,0 -0.504,3.522 -0.593,1.463 -4.025,4.339 -2.845,-0.925 -0.707,-5.876 0.381,-1.532 1.662,-3.145 -4.671,-3.394 -2.477,2.553 -1.34,0.835 -5.807,1.144 -1.758,-2.42 2.882,-5.169 1.208,-1.016 3.194,-1.568 -1.784,-5.491 -3.505,0.609 -1.575,-0.111 -5.37,-2.488 0,-2.992 5.37,-2.488 1.575,-0.111 3.505,0.609 1.784,-5.491 -3.194,-1.568 -1.208,-1.016 -2.882,-5.169 1.758,-2.42 5.807,1.144 1.34,0.835 2.477,2.553 4.671,-3.394 -1.662,-3.145 -0.381,-1.532 0.707,-5.876 2.845,-0.925 4.025,4.339 0.593,1.463 0.504,3.522 5.774,0 0.504,-3.522 0.593,-1.463 4.025,-4.339 2.845,0.925 0.707,5.876 -0.381,1.532 -1.662,3.145 4.671,3.394 2.477,-2.553 1.34,-0.835 5.807,-1.144 1.758,2.42 -2.882,5.169 -1.208,1.016 -3.194,1.568 z"
       inkscape:connector-curvature="0" />
  </g>
</svg>
