<?xml version="1.0" encoding="UTF-8" standalone="no"?>
<!-- Created with Inkscape (http://www.inkscape.org/) -->

<svg
   xmlns:dc="http://purl.org/dc/elements/1.1/"
   xmlns:cc="http://creativecommons.org/ns#"
   xmlns:rdf="http://www.w3.org/1999/02/22-rdf-syntax-ns#"
   xmlns:svg="http://www.w3.org/2000/svg"
   xmlns="http://www.w3.org/2000/svg"
   xmlns:sodipodi="http://sodipodi.sourceforge.net/DTD/sodipodi-0.dtd"
   xmlns:inkscape="http://www.inkscape.org/namespaces/inkscape"
   width="180.28943"
   height="180.28838"
   id="svg2"
   version="1.1"
   inkscape:version="0.48.5 r10040"
   sodipodi:docname="cog-large.svg">
  <sodipodi:namedview
     id="base"
     pagecolor="#ffffff"
     bordercolor="#666666"
     borderopacity="1.0"
     inkscape:pageopacity="0.0"
     inkscape:pageshadow="2"
     inkscape:zoom="2.3434678"
     inkscape:cx="95.621591"
     inkscape:cy="102.40845"
     inkscape:document-units="px"
     inkscape:current-layer="g4317"
     showgrid="false"
     inkscape:window-width="1920"
     inkscape:window-height="1033"
     inkscape:window-x="1276"
     inkscape:window-y="151"
     inkscape:window-maximized="1"
     fit-margin-top="0"
     fit-margin-left="0"
     fit-margin-right="0"
     fit-margin-bottom="0" />
  <defs
     id="defs4">
    <mask
       id="mask3791"
       maskUnits="userSpaceOnUse">
      <path
         sodipodi:type="arc"
         style="fill:#808080;fill-opacity:1;stroke:#000000;stroke-width:0.48985207;stroke-linecap:round;stroke-linejoin:round;stroke-miterlimit:4;stroke-opacity:1;stroke-dasharray:none;stroke-dashoffset:0"
         id="path3793"
         sodipodi:cx="98.850571"
         sodipodi:cy="96.916183"
         sodipodi:rx="30.416723"
         sodipodi:ry="30.416723"
         d="m 129.26729,96.916183 a 30.416723,30.416723 0 1 1 -60.833443,0 30.416723,30.416723 0 1 1 60.833443,0 z"
         transform="matrix(7.8183538,0,0,7.8183538,-567.70672,-324.45338)" />
    </mask>
  </defs>
  <metadata
     id="metadata7">
    <rdf:RDF>
      <cc:Work
         rdf:about="">
        <dc:format>image/svg+xml</dc:format>
        <dc:type
           rdf:resource="http://purl.org/dc/dcmitype/StillImage" />
        <dc:title></dc:title>
      </cc:Work>
    </rdf:RDF>
  </metadata>
  <g
     transform="translate(2175.3044,-190.96929)"
     id="layer1"
     inkscape:groupmode="layer"
     inkscape:label="Layer 1">
    <g
       id="g3805"
       transform="translate(7.2283044,101.143201)"
       inkscape:label="Gear24">
      <path
         id="path3807"
         d="M69.802,-5.621L71.556,-5.762L76.231,-4.996L82.729,-2.277L82.729,2.277L76.231,4.996L71.556,5.762L69.802,5.621L68.879,12.637L70.609,12.954L74.926,14.904L80.500,19.212L79.321,23.612L72.340,24.556L67.626,24.086L65.969,23.496L63.261,30.033L64.850,30.788L68.516,33.788L72.784,39.392L70.507,43.337L63.520,42.442L59.088,40.768L57.640,39.769L53.332,45.383L54.672,46.523L57.436,50.370L60.109,56.888L56.888,60.109L50.370,57.436L46.523,54.672L45.383,53.332L39.769,57.640L40.768,59.088L42.442,63.520L43.337,70.507L39.392,72.784L33.788,68.516L30.788,64.850L30.033,63.261L23.496,65.969L24.086,67.626L24.556,72.340L23.612,79.321L19.212,80.500L14.904,74.926L12.954,70.609L12.637,68.879L5.621,69.802L5.762,71.556L4.996,76.231L2.277,82.729L-2.277,82.729L-4.996,76.231L-5.762,71.556L-5.621,69.802L-12.637,68.879L-12.954,70.609L-14.904,74.926L-19.212,80.500L-23.612,79.321L-24.556,72.340L-24.086,67.626L-23.496,65.969L-30.033,63.261L-30.788,64.850L-33.788,68.516L-39.392,72.784L-43.337,70.507L-42.442,63.520L-40.768,59.088L-39.769,57.640L-45.383,53.332L-46.523,54.672L-50.370,57.436L-56.888,60.109L-60.109,56.888L-57.436,50.370L-54.672,46.523L-53.332,45.383L-57.640,39.769L-59.088,40.768L-63.520,42.442L-70.507,43.337L-72.784,39.392L-68.516,33.788L-64.850,30.788L-63.261,30.033L-65.969,23.496L-67.626,24.086L-72.340,24.556L-79.321,23.612L-80.500,19.212L-74.926,14.904L-70.609,12.954L-68.879,12.637L-69.802,5.621L-71.556,5.762L-76.231,4.996L-82.729,2.277L-82.729,-2.277L-76.231,-4.996L-71.556,-5.762L-69.802,-5.621L-68.879,-12.637L-70.609,-12.954L-74.926,-14.904L-80.500,-19.212L-79.321,-23.612L-72.340,-24.556L-67.626,-24.086L-65.969,-23.496L-63.261,-30.033L-64.850,-30.788L-68.516,-33.788L-72.784,-39.392L-70.507,-43.337L-63.520,-42.442L-59.088,-40.768L-57.640,-39.769L-53.332,-45.383L-54.672,-46.523L-57.436,-50.370L-60.109,-56.888L-56.888,-60.109L-50.370,-57.436L-46.523,-54.672L-45.383,-53.332L-39.769,-57.640L-40.768,-59.088L-42.442,-63.520L-43.337,-70.507L-39.392,-72.784L-33.788,-68.516L-30.788,-64.850L-30.033,-63.261L-23.496,-65.969L-24.086,-67.626L-24.556,-72.340L-23.612,-79.321L-19.212,-80.500L-14.904,-74.926L-12.954,-70.609L-12.637,-68.879L-5.621,-69.802L-5.762,-71.556L-4.996,-76.231L-2.277,-82.729L2.277,-82.729L4.996,-76.231L5.762,-71.556L5.621,-69.802L12.637,-68.879L12.954,-70.609L14.904,-74.926L19.212,-80.500L23.612,-79.321L24.556,-72.340L24.086,-67.626L23.496,-65.969L30.033,-63.261L30.788,-64.850L33.788,-68.516L39.392,-72.784L43.337,-70.507L42.442,-63.520L40.768,-59.088L39.769,-57.640L45.383,-53.332L46.523,-54.672L50.370,-57.436L56.888,-60.109L60.109,-56.888L57.436,-50.370L54.672,-46.523L53.332,-45.383L57.640,-39.769L59.088,-40.768L63.520,-42.442L70.507,-43.337L72.784,-39.392L68.516,-33.788L64.850,-30.788L63.261,-30.033L65.969,-23.496L67.626,-24.086L72.340,-24.556L79.321,-23.612L80.500,-19.212L74.926,-14.904L70.609,-12.954L68.879,-12.637z"
         style="stroke:#000000;fill:none" />
    </g>
    <g
       inkscape:label="Gear24"
       transform="translate(7.2283044,101.143201)"
       id="g3831">
      <path
         style="stroke:#000000;fill:none"
         d="M69.802,-5.621L71.556,-5.762L76.231,-4.996L82.729,-2.277L82.729,2.277L76.231,4.996L71.556,5.762L69.802,5.621L68.879,12.637L70.609,12.954L74.926,14.904L80.500,19.212L79.321,23.612L72.340,24.556L67.626,24.086L65.969,23.496L63.261,30.033L64.850,30.788L68.516,33.788L72.784,39.392L70.507,43.337L63.520,42.442L59.088,40.768L57.640,39.769L53.332,45.383L54.672,46.523L57.436,50.370L60.109,56.888L56.888,60.109L50.370,57.436L46.523,54.672L45.383,53.332L39.769,57.640L40.768,59.088L42.442,63.520L43.337,70.507L39.392,72.784L33.788,68.516L30.788,64.850L30.033,63.261L23.496,65.969L24.086,67.626L24.556,72.340L23.612,79.321L19.212,80.500L14.904,74.926L12.954,70.609L12.637,68.879L5.621,69.802L5.762,71.556L4.996,76.231L2.277,82.729L-2.277,82.729L-4.996,76.231L-5.762,71.556L-5.621,69.802L-12.637,68.879L-12.954,70.609L-14.904,74.926L-19.212,80.500L-23.612,79.321L-24.556,72.340L-24.086,67.626L-23.496,65.969L-30.033,63.261L-30.788,64.850L-33.788,68.516L-39.392,72.784L-43.337,70.507L-42.442,63.520L-40.768,59.088L-39.769,57.640L-45.383,53.332L-46.523,54.672L-50.370,57.436L-56.888,60.109L-60.109,56.888L-57.436,50.370L-54.672,46.523L-53.332,45.383L-57.640,39.769L-59.088,40.768L-63.520,42.442L-70.507,43.337L-72.784,39.392L-68.516,33.788L-64.850,30.788L-63.261,30.033L-65.969,23.496L-67.626,24.086L-72.340,24.556L-79.321,23.612L-80.500,19.212L-74.926,14.904L-70.609,12.954L-68.879,12.637L-69.802,5.621L-71.556,5.762L-76.231,4.996L-82.729,2.277L-82.729,-2.277L-76.231,-4.996L-71.556,-5.762L-69.802,-5.621L-68.879,-12.637L-70.609,-12.954L-74.926,-14.904L-80.500,-19.212L-79.321,-23.612L-72.340,-24.556L-67.626,-24.086L-65.969,-23.496L-63.261,-30.033L-64.850,-30.788L-68.516,-33.788L-72.784,-39.392L-70.507,-43.337L-63.520,-42.442L-59.088,-40.768L-57.640,-39.769L-53.332,-45.383L-54.672,-46.523L-57.436,-50.370L-60.109,-56.888L-56.888,-60.109L-50.370,-57.436L-46.523,-54.672L-45.383,-53.332L-39.769,-57.640L-40.768,-59.088L-42.442,-63.520L-43.337,-70.507L-39.392,-72.784L-33.788,-68.516L-30.788,-64.850L-30.033,-63.261L-23.496,-65.969L-24.086,-67.626L-24.556,-72.340L-23.612,-79.321L-19.212,-80.500L-14.904,-74.926L-12.954,-70.609L-12.637,-68.879L-5.621,-69.802L-5.762,-71.556L-4.996,-76.231L-2.277,-82.729L2.277,-82.729L4.996,-76.231L5.762,-71.556L5.621,-69.802L12.637,-68.879L12.954,-70.609L14.904,-74.926L19.212,-80.500L23.612,-79.321L24.556,-72.340L24.086,-67.626L23.496,-65.969L30.033,-63.261L30.788,-64.850L33.788,-68.516L39.392,-72.784L43.337,-70.507L42.442,-63.520L40.768,-59.088L39.769,-57.640L45.383,-53.332L46.523,-54.672L50.370,-57.436L56.888,-60.109L60.109,-56.888L57.436,-50.370L54.672,-46.523L53.332,-45.383L57.640,-39.769L59.088,-40.768L63.520,-42.442L70.507,-43.337L72.784,-39.392L68.516,-33.788L64.850,-30.788L63.261,-30.033L65.969,-23.496L67.626,-24.086L72.340,-24.556L79.321,-23.612L80.500,-19.212L74.926,-14.904L70.609,-12.954L68.879,-12.637z"
         id="path3833" />
    </g>
  </g>
  <g
     id="g4317"
     transform="translate(88.011124,91.637705)"
     inkscape:label="Gear27">
    <g
       id="g4748"
       transform="matrix(1.2557192,1.2421251,-1.2421251,1.2557192,2.1335904,-1.4935171)"
       inkscape:label="Gear12"
       style="fill:#e6e6e6">
      <path
         id="path4750"
         d="m 18.931,-2.527 3.441,-0.459 0.35,-0.005 3.962,1.297 0,3.388 -3.962,1.297 -0.35,-0.005 -3.441,-0.459 -1.273,4.75 3.21,1.323 0.306,0.17 2.782,3.105 -1.694,2.934 -4.08,-0.857 -0.301,-0.18 -2.75,-2.118 -3.477,3.477 2.118,2.75 0.18,0.301 0.857,4.08 -2.934,1.694 -3.105,-2.782 -0.17,-0.306 -1.323,-3.21 -4.75,1.273 0.459,3.441 0.005,0.35 -1.297,3.962 -3.388,0 -1.297,-3.962 0.005,-0.35 0.459,-3.441 -4.75,-1.273 -1.323,3.21 -0.17,0.306 -3.105,2.782 -2.934,-1.694 0.857,-4.08 0.18,-0.301 2.118,-2.75 -3.477,-3.477 -2.75,2.118 -0.301,0.18 -4.08,0.857 -1.694,-2.934 2.782,-3.105 0.306,-0.17 3.21,-1.323 -1.273,-4.75 -3.441,0.459 -0.35,0.005 -3.962,-1.297 0,-3.388 3.962,-1.297 0.35,0.005 3.441,0.459 1.273,-4.75 -3.21,-1.323 -0.306,-0.17 -2.782,-3.105 1.694,-2.934 4.08,0.857 0.301,0.18 2.75,2.118 3.477,-3.477 -2.118,-2.75 -0.18,-0.301 -0.857,-4.08 2.934,-1.694 3.105,2.782 0.17,0.306 1.323,3.21 4.75,-1.273 -0.459,-3.441 -0.005,-0.35 1.297,-3.962 3.388,0 1.297,3.962 -0.005,0.35 -0.459,3.441 4.75,1.273 1.323,-3.21 0.17,-0.306 3.105,-2.782 2.934,1.694 -0.857,4.08 -0.18,0.301 -2.118,2.75 3.477,3.477 2.75,-2.118 0.301,-0.18 4.08,-0.857 1.694,2.934 -2.782,3.105 -0.306,0.17 -3.21,1.323 z"
         style="fill:#e6e6e6;stroke:#000000"
         inkscape:connector-curvature="0" />
    </g>
  </g>
</svg>
