<?xml version="1.0" encoding="UTF-8" standalone="no"?>
<!-- Created with Inkscape (http://www.inkscape.org/) -->

<svg
   xmlns:dc="http://purl.org/dc/elements/1.1/"
   xmlns:cc="http://creativecommons.org/ns#"
   xmlns:rdf="http://www.w3.org/1999/02/22-rdf-syntax-ns#"
   xmlns:svg="http://www.w3.org/2000/svg"
   xmlns="http://www.w3.org/2000/svg"
   xmlns:sodipodi="http://sodipodi.sourceforge.net/DTD/sodipodi-0.dtd"
   xmlns:inkscape="http://www.inkscape.org/namespaces/inkscape"
   width="115.514"
   height="115.514"
   id="svg2"
   version="1.1"
   inkscape:version="0.48.5 r10040"
   sodipodi:docname="favicon.svg"
   inkscape:export-filename="C:\Users\jan\Dropbox\My Stuff\Pages\exciting-technology\imgs\favicon.png"
   inkscape:export-xdpi="24.93"
   inkscape:export-ydpi="24.93">
  <sodipodi:namedview
     id="base"
     pagecolor="#ffffff"
     bordercolor="#666666"
     borderopacity="1.0"
     inkscape:pageopacity="0.0"
     inkscape:pageshadow="2"
     inkscape:zoom="7.1160206"
     inkscape:cx="39.909946"
     inkscape:cy="57.757"
     inkscape:document-units="px"
     inkscape:current-layer="layer1"
     showgrid="false"
     inkscape:window-width="1920"
     inkscape:window-height="1024"
     inkscape:window-x="-4"
     inkscape:window-y="-4"
     inkscape:window-maximized="1"
     fit-margin-top="0"
     fit-margin-left="0"
     fit-margin-right="0"
     fit-margin-bottom="0" />
  <defs
     id="defs4" />
  <metadata
     id="metadata7">
    <rdf:RDF>
      <cc:Work
         rdf:about="">
        <dc:format>image/svg+xml</dc:format>
        <dc:type
           rdf:resource="http://purl.org/dc/dcmitype/StillImage" />
        <dc:title></dc:title>
      </cc:Work>
    </rdf:RDF>
  </metadata>
  <g
     inkscape:label="Layer 1"
     inkscape:groupmode="layer"
     id="layer1"
     transform="translate(22.259998,22.259999)">
    <g
       inkscape:label="Gear16"
       transform="translate(35.497002,35.497001)"
       id="g3166">
      <path
         inkscape:connector-curvature="0"
         style="fill:#808080;stroke:#000000"
         d="m 44.279,-5.028 3.273,-0.372 3.132,0.408 6.573,2.873 0,4.238 -6.573,2.873 -3.132,0.408 -3.273,-0.372 -1.446,7.271 3.166,0.909 2.738,1.576 4.972,5.17 -1.622,3.914 -7.171,0.14 -3.05,-0.821 -2.882,-1.597 -4.119,6.164 2.578,2.052 1.926,2.503 2.616,6.68 -2.996,2.996 -6.68,-2.616 -2.503,-1.926 -2.052,-2.578 -6.164,4.119 1.597,2.882 0.821,3.05 -0.14,7.171 -3.914,1.622 -5.17,-4.972 -1.576,-2.738 -0.909,-3.166 -7.271,1.446 0.372,3.273 -0.408,3.132 -2.873,6.573 -4.238,0 -2.873,-6.573 -0.408,-3.132 0.372,-3.273 -7.271,-1.446 -0.909,3.166 -1.576,2.738 -5.17,4.972 -3.914,-1.622 -0.14,-7.171 0.821,-3.05 1.597,-2.882 -6.164,-4.119 -2.052,2.578 -2.503,1.926 -6.68,2.616 -2.996,-2.996 2.616,-6.68 1.926,-2.503 2.578,-2.052 -4.119,-6.164 -2.882,1.597 -3.05,0.821 -7.171,-0.14 -1.622,-3.914 4.972,-5.17 2.738,-1.576 3.166,-0.909 -1.446,-7.271 -3.273,0.372 -3.132,-0.408 -6.573,-2.873 0,-4.238 6.573,-2.873 3.132,-0.408 3.273,0.372 1.446,-7.271 -3.166,-0.909 -2.738,-1.576 -4.972,-5.17 1.622,-3.914 7.171,-0.14 3.05,0.821 2.882,1.597 4.119,-6.164 -2.578,-2.052 -1.926,-2.503 -2.616,-6.68 2.996,-2.996 6.68,2.616 2.503,1.926 2.052,2.578 6.164,-4.119 -1.597,-2.882 -0.821,-3.05 0.14,-7.171 3.914,-1.622 5.17,4.972 1.576,2.738 0.909,3.166 7.271,-1.446 -0.372,-3.273 0.408,-3.132 2.873,-6.573 4.238,0 2.873,6.573 0.408,3.132 -0.372,3.273 7.271,1.446 0.909,-3.166 1.576,-2.738 5.17,-4.972 3.914,1.622 0.14,7.171 -0.821,3.05 -1.597,2.882 6.164,4.119 2.052,-2.578 2.503,-1.926 6.68,-2.616 2.996,2.996 -2.616,6.68 -1.926,2.503 -2.578,2.052 4.119,6.164 2.882,-1.597 3.05,-0.821 7.171,0.14 1.622,3.914 -4.972,5.17 -2.738,1.576 -3.166,0.909 z"
         id="path3168" />
    </g>
    <g
       id="g3182"
       transform="translate(35.497002,35.497001)"
       inkscape:label="Gear8"
       style="fill:#e6e6e6">
      <path
         id="path3184"
         d="m 18.674,-4.005 4.723,-1.013 1.578,0.05 6.809,3.246 0,3.444 -6.809,3.246 -1.578,0.05 -4.723,-1.013 -2.638,6.368 4.056,2.623 1.081,1.151 2.52,7.11 -2.436,2.436 -7.11,-2.52 -1.151,-1.081 -2.623,-4.056 -6.368,2.638 1.013,4.723 -0.05,1.578 -3.246,6.809 -3.444,0 -3.246,-6.809 -0.05,-1.578 1.013,-4.723 -6.368,-2.638 -2.623,4.056 -1.151,1.081 -7.11,2.52 -2.436,-2.436 2.52,-7.11 1.081,-1.151 4.056,-2.623 -2.638,-6.368 -4.723,1.013 -1.578,-0.05 -6.809,-3.246 0,-3.444 6.809,-3.246 1.578,-0.05 4.723,1.013 2.638,-6.368 -4.056,-2.623 -1.081,-1.151 -2.52,-7.11 2.436,-2.436 7.11,2.52 1.151,1.081 2.623,4.056 6.368,-2.638 -1.013,-4.723 0.05,-1.578 3.246,-6.809 3.444,0 3.246,6.809 0.05,1.578 -1.013,4.723 6.368,2.638 2.623,-4.056 1.151,-1.081 7.11,-2.52 2.436,2.436 -2.52,7.11 -1.081,1.151 -4.056,2.623 z"
         style="fill:#e6e6e6;stroke:#000000"
         inkscape:connector-curvature="0" />
    </g>
  </g>
</svg>
