<svg xmlns="http://www.w3.org/2000/svg" height="256" width="256"><path d="M122.116-5.298l5.145 1.3 5.142 2.023v3.95L127.262 4l-5.146 1.298-.3 4.75 4.943 1.934 4.846 2.653-.495 3.918-5.354 1.365-5.267.643-.893 4.678 4.66 2.537 4.477 3.24-.983 3.825-5.482.682-5.306-.022-1.47 4.528 4.305 3.1 4.034 3.777-1.452 3.67-5.526-.01-5.26-.686-2.03 4.308 3.884 3.616 3.53 4.25-1.902 3.462-5.48-.703-5.135-1.34-2.552 4.02 3.4 4.074 2.968 4.66-2.32 3.194-5.35-1.382-4.926-1.974-3.035 3.67 2.862 4.467 2.362 4.996-2.705 2.88-5.133-2.044-4.64-2.576-3.47 3.26 2.28 4.79 1.716 5.253-3.043 2.516-4.837-2.67-4.28-3.137-3.852 2.798 1.66 5.04 1.046 5.425-3.335 2.116-4.464-3.257-3.853-3.648-4.172 2.293 1.016 5.208.357 5.514-3.573 1.682-4.02-3.79-3.366-4.102-4.426 1.752.355 5.295-.338 5.515-3.755 1.22-3.515-4.264-2.824-4.492-4.612 1.184-.31 5.298-1.027 5.43-3.88.74-2.952-4.672-2.24-4.81-4.723.597-.973 5.216-1.698 5.257-3.94.248-2.345-5.004-1.62-5.052h-4.76L-4 127.26l-2.343 5.005-3.94-.248-1.7-5.258-.972-5.217-4.724-.597-2.238 4.81-2.952 4.67-3.88-.74-1.025-5.428-.31-5.298-4.613-1.184-2.824 4.492-3.515 4.264-3.755-1.22-.337-5.515.356-5.295-4.427-1.752-3.366 4.102-4.02 3.79-3.575-1.682.356-5.514 1.016-5.208-4.172-2.293-3.853 3.648-4.464 3.256-3.335-2.117 1.045-5.426 1.66-5.04-3.85-2.798-4.28 3.136-4.838 2.67-3.043-2.517 1.717-5.253 2.278-4.792-3.47-3.26-4.64 2.577-5.133 2.043-2.704-2.88 2.363-4.994 2.862-4.467-3.035-3.67-4.926 1.975-5.35 1.383-2.32-3.193 2.97-4.66 3.398-4.075-2.55-4.02-5.135 1.34-5.48.704-1.903-3.46 3.53-4.252 3.883-3.616-2.028-4.31-5.262.688-5.526.01-1.453-3.67 4.033-3.777 4.306-3.102-1.472-4.528-5.306.022-5.483-.682-.984-3.825 4.476-3.24 4.66-2.537-.89-4.677-5.268-.642-5.355-1.365-.496-3.918 4.847-2.653 4.943-1.933-.3-4.752-5.144-1.3-5.142-2.023v-3.95l5.14-2.024 5.146-1.298.3-4.75-4.943-1.934-4.846-2.653.495-3.918 5.354-1.365 5.267-.643.893-4.678-4.66-2.537-4.477-3.24.983-3.825 5.482-.682 5.306.022 1.47-4.528-4.305-3.1-4.034-3.777 1.452-3.67 5.526.01 5.26.686 2.03-4.308-3.884-3.616-3.53-4.25 1.902-3.462 5.48.703 5.135 1.34 2.552-4.02-3.4-4.074-2.968-4.66 2.32-3.194 5.35 1.382 4.926 1.974 3.035-3.67-2.862-4.467-2.362-4.996 2.705-2.88 5.133 2.044 4.64 2.576 3.47-3.26-2.28-4.79-1.716-5.253 3.043-2.516 4.837 2.67 4.28 3.137 3.852-2.798-1.66-5.04-1.046-5.425 3.335-2.116 4.464 3.257 3.853 3.648 4.172-2.293-1.016-5.208-.357-5.514 3.573-1.682 4.02 3.79 3.366 4.102 4.426-1.752-.355-5.295.338-5.515 3.755-1.22 3.515 4.264 2.824 4.492 4.612-1.184.31-5.298 1.027-5.43 3.88-.74 2.952 4.672 2.24 4.81 4.723-.597.973-5.216 1.698-5.257 3.94-.248 2.345 5.004 1.62 5.052h4.76L4-127.26l2.343-5.005 3.94.248 1.7 5.258.972 5.217 4.724.597 2.238-4.81 2.952-4.67 3.88.74 1.025 5.428.31 5.298 4.613 1.184 2.824-4.492 3.515-4.264 3.755 1.22.337 5.515-.356 5.295 4.427 1.752 3.366-4.102 4.02-3.79 3.575 1.682-.356 5.514-1.016 5.208 4.172 2.293 3.853-3.648 4.464-3.256 3.335 2.117-1.045 5.426-1.66 5.04 3.85 2.798 4.28-3.136 4.838-2.67 3.043 2.517-1.717 5.253-2.278 4.792 3.47 3.26 4.64-2.577 5.133-2.043 2.704 2.88-2.363 4.994-2.862 4.467 3.035 3.67 4.926-1.975 5.35-1.383 2.32 3.193-2.97 4.66-3.398 4.075 2.55 4.02 5.135-1.34 5.48-.704 1.903 3.46-3.53 4.252-3.883 3.616 2.028 4.31 5.262-.688 5.526-.01 1.453 3.67-4.033 3.777-4.306 3.102 1.472 4.528 5.306-.022 5.483.682.984 3.825-4.476 3.24-4.66 2.537.89 4.677 5.268.642 5.355 1.365.496 3.918-4.847 2.653-4.943 1.933z" transform="matrix(.959 0 0 .96 128 128)" fill="#808080" stroke="#000" stroke-width="2.075"/><path d="M20.07-3.486l3.506-.61 1.575.112 5.37 2.488v2.992l-5.37 2.488-1.574.11-3.505-.608-1.783 5.49 3.194 1.57 1.21 1.015 2.88 5.17-1.757 2.42-5.807-1.144-1.34-.835-2.477-2.552-4.672 3.394 1.662 3.145.38 1.532-.706 5.875-2.845.925-4.026-4.34-.593-1.462-.503-3.522h-5.774l-.504 3.522-.594 1.463-4.025 4.34-2.844-.925-.707-5.876.38-1.533 1.662-3.145-4.67-3.394-2.478 2.553-1.34.836-5.807 1.144-1.758-2.42 2.88-5.17 1.21-1.015 3.193-1.568-1.784-5.49-3.506.608-1.575-.11-5.37-2.49v-2.99l5.37-2.49 1.574-.11 3.505.61 1.783-5.492-3.194-1.568-1.21-1.016-2.88-5.17 1.757-2.42 5.807 1.144 1.34.835 2.477 2.552 4.672-3.394-1.662-3.145-.38-1.532.706-5.875 2.845-.925 4.026 4.34.593 1.462.503 3.522h5.774l.504-3.522.594-1.463 4.025-4.34 2.844.925.707 5.876-.38 1.533-1.662 3.145 4.67 3.394 2.478-2.553 1.34-.836 5.807-1.144 1.758 2.42-2.88 5.17-1.21 1.015-3.193 1.568z" transform="matrix(1.077 0 0 1.114 128 128)" fill="#b3b3b3" stroke="#000" stroke-width="2.075"/></svg>